<mxfile host="app.diagrams.net" modified="2024-01-15T13:23:19.404Z" agent="Mozilla/5.0 (Windows NT 10.0; Win64; x64) AppleWebKit/537.36 (KHTML, like Gecko) Chrome/120.0.0.0 Safari/537.36" etag="6CJ185YGz592RLxPuvsh" version="21.4.0" type="device" pages="2">
  <diagram name="分组加密过程" id="3BwIMZOH_f-2n3_WlSqb">
    <mxGraphModel dx="954" dy="626" grid="1" gridSize="10" guides="1" tooltips="1" connect="1" arrows="1" fold="1" page="1" pageScale="1" pageWidth="827" pageHeight="1169" math="0" shadow="0">
      <root>
        <mxCell id="0" />
        <mxCell id="1" parent="0" />
        <mxCell id="qdA8zK0RTi7zm9Fms1MK-18" style="edgeStyle=orthogonalEdgeStyle;rounded=0;orthogonalLoop=1;jettySize=auto;html=1;entryX=0.5;entryY=0;entryDx=0;entryDy=0;" edge="1" parent="1" source="qdA8zK0RTi7zm9Fms1MK-1" target="qdA8zK0RTi7zm9Fms1MK-17">
          <mxGeometry relative="1" as="geometry" />
        </mxCell>
        <mxCell id="qdA8zK0RTi7zm9Fms1MK-1" value="" style="shape=table;startSize=0;container=1;collapsible=0;childLayout=tableLayout;fontSize=16;" vertex="1" parent="1">
          <mxGeometry x="65" y="140" width="200" height="30" as="geometry" />
        </mxCell>
        <mxCell id="qdA8zK0RTi7zm9Fms1MK-2" value="" style="shape=tableRow;horizontal=0;startSize=0;swimlaneHead=0;swimlaneBody=0;strokeColor=inherit;top=0;left=0;bottom=0;right=0;collapsible=0;dropTarget=0;fillColor=none;points=[[0,0.5],[1,0.5]];portConstraint=eastwest;fontSize=16;" vertex="1" parent="qdA8zK0RTi7zm9Fms1MK-1">
          <mxGeometry width="200" height="30" as="geometry" />
        </mxCell>
        <mxCell id="qdA8zK0RTi7zm9Fms1MK-3" value="" style="shape=partialRectangle;html=1;whiteSpace=wrap;connectable=0;strokeColor=inherit;overflow=hidden;fillColor=none;top=0;left=0;bottom=0;right=0;pointerEvents=1;fontSize=16;" vertex="1" parent="qdA8zK0RTi7zm9Fms1MK-2">
          <mxGeometry width="40" height="30" as="geometry">
            <mxRectangle width="40" height="30" as="alternateBounds" />
          </mxGeometry>
        </mxCell>
        <mxCell id="qdA8zK0RTi7zm9Fms1MK-4" value="" style="shape=partialRectangle;html=1;whiteSpace=wrap;connectable=0;strokeColor=inherit;overflow=hidden;fillColor=none;top=0;left=0;bottom=0;right=0;pointerEvents=1;fontSize=16;" vertex="1" parent="qdA8zK0RTi7zm9Fms1MK-2">
          <mxGeometry x="40" width="40" height="30" as="geometry">
            <mxRectangle width="40" height="30" as="alternateBounds" />
          </mxGeometry>
        </mxCell>
        <mxCell id="qdA8zK0RTi7zm9Fms1MK-5" value="" style="shape=partialRectangle;html=1;whiteSpace=wrap;connectable=0;strokeColor=inherit;overflow=hidden;fillColor=none;top=0;left=0;bottom=0;right=0;pointerEvents=1;fontSize=16;" vertex="1" parent="qdA8zK0RTi7zm9Fms1MK-2">
          <mxGeometry x="80" width="40" height="30" as="geometry">
            <mxRectangle width="40" height="30" as="alternateBounds" />
          </mxGeometry>
        </mxCell>
        <mxCell id="qdA8zK0RTi7zm9Fms1MK-14" style="shape=partialRectangle;html=1;whiteSpace=wrap;connectable=0;strokeColor=inherit;overflow=hidden;fillColor=none;top=0;left=0;bottom=0;right=0;pointerEvents=1;fontSize=16;" vertex="1" parent="qdA8zK0RTi7zm9Fms1MK-2">
          <mxGeometry x="120" width="40" height="30" as="geometry">
            <mxRectangle width="40" height="30" as="alternateBounds" />
          </mxGeometry>
        </mxCell>
        <mxCell id="qdA8zK0RTi7zm9Fms1MK-15" style="shape=partialRectangle;html=1;whiteSpace=wrap;connectable=0;strokeColor=inherit;overflow=hidden;fillColor=none;top=0;left=0;bottom=0;right=0;pointerEvents=1;fontSize=16;" vertex="1" parent="qdA8zK0RTi7zm9Fms1MK-2">
          <mxGeometry x="160" width="40" height="30" as="geometry">
            <mxRectangle width="40" height="30" as="alternateBounds" />
          </mxGeometry>
        </mxCell>
        <mxCell id="qdA8zK0RTi7zm9Fms1MK-16" value="&lt;span style=&quot;font-size: 16px;&quot;&gt;Plaintext&lt;/span&gt;" style="text;html=1;strokeColor=none;fillColor=none;align=center;verticalAlign=middle;whiteSpace=wrap;rounded=0;" vertex="1" parent="1">
          <mxGeometry x="138" y="110" width="60" height="30" as="geometry" />
        </mxCell>
        <mxCell id="qdA8zK0RTi7zm9Fms1MK-23" style="edgeStyle=orthogonalEdgeStyle;rounded=0;orthogonalLoop=1;jettySize=auto;html=1;" edge="1" parent="1" source="qdA8zK0RTi7zm9Fms1MK-17" target="qdA8zK0RTi7zm9Fms1MK-22">
          <mxGeometry relative="1" as="geometry" />
        </mxCell>
        <mxCell id="qdA8zK0RTi7zm9Fms1MK-17" value="&lt;font style=&quot;font-size: 19px;&quot;&gt;+&lt;/font&gt;" style="ellipse;whiteSpace=wrap;html=1;aspect=fixed;" vertex="1" parent="1">
          <mxGeometry x="150" y="230" width="30" height="30" as="geometry" />
        </mxCell>
        <mxCell id="qdA8zK0RTi7zm9Fms1MK-21" style="edgeStyle=orthogonalEdgeStyle;rounded=0;orthogonalLoop=1;jettySize=auto;html=1;" edge="1" parent="1">
          <mxGeometry relative="1" as="geometry">
            <mxPoint x="135" y="245" as="targetPoint" />
            <mxPoint x="75" y="245" as="sourcePoint" />
          </mxGeometry>
        </mxCell>
        <mxCell id="qdA8zK0RTi7zm9Fms1MK-19" value="&lt;span style=&quot;font-size: 16px;&quot;&gt;IV&lt;/span&gt;" style="text;html=1;strokeColor=none;fillColor=none;align=center;verticalAlign=middle;whiteSpace=wrap;rounded=0;" vertex="1" parent="1">
          <mxGeometry x="13" y="230" width="60" height="30" as="geometry" />
        </mxCell>
        <mxCell id="qdA8zK0RTi7zm9Fms1MK-34" style="rounded=0;orthogonalLoop=1;jettySize=auto;html=1;entryX=0.49;entryY=-0.044;entryDx=0;entryDy=0;entryPerimeter=0;" edge="1" parent="1" source="qdA8zK0RTi7zm9Fms1MK-22" target="qdA8zK0RTi7zm9Fms1MK-28">
          <mxGeometry relative="1" as="geometry" />
        </mxCell>
        <mxCell id="qdA8zK0RTi7zm9Fms1MK-22" value="&lt;font style=&quot;font-size: 18px;&quot;&gt;Encrypt&lt;/font&gt;" style="rounded=0;whiteSpace=wrap;html=1;" vertex="1" parent="1">
          <mxGeometry x="110" y="300" width="110" height="40" as="geometry" />
        </mxCell>
        <mxCell id="qdA8zK0RTi7zm9Fms1MK-26" style="edgeStyle=orthogonalEdgeStyle;rounded=0;orthogonalLoop=1;jettySize=auto;html=1;entryX=0;entryY=0.5;entryDx=0;entryDy=0;exitX=1;exitY=0.5;exitDx=0;exitDy=0;" edge="1" parent="1" source="qdA8zK0RTi7zm9Fms1MK-24">
          <mxGeometry relative="1" as="geometry">
            <mxPoint x="66" y="320" as="sourcePoint" />
            <mxPoint x="102" y="320" as="targetPoint" />
          </mxGeometry>
        </mxCell>
        <mxCell id="qdA8zK0RTi7zm9Fms1MK-24" value="&lt;span style=&quot;font-size: 16px;&quot;&gt;Key&lt;/span&gt;" style="text;html=1;strokeColor=none;fillColor=none;align=center;verticalAlign=middle;whiteSpace=wrap;rounded=0;" vertex="1" parent="1">
          <mxGeometry x="14" y="305" width="60" height="30" as="geometry" />
        </mxCell>
        <mxCell id="qdA8zK0RTi7zm9Fms1MK-27" value="" style="shape=table;startSize=0;container=1;collapsible=0;childLayout=tableLayout;fontSize=16;" vertex="1" parent="1">
          <mxGeometry x="67" y="420" width="200" height="30" as="geometry" />
        </mxCell>
        <mxCell id="qdA8zK0RTi7zm9Fms1MK-28" value="" style="shape=tableRow;horizontal=0;startSize=0;swimlaneHead=0;swimlaneBody=0;strokeColor=inherit;top=0;left=0;bottom=0;right=0;collapsible=0;dropTarget=0;fillColor=none;points=[[0,0.5],[1,0.5]];portConstraint=eastwest;fontSize=16;" vertex="1" parent="qdA8zK0RTi7zm9Fms1MK-27">
          <mxGeometry width="200" height="30" as="geometry" />
        </mxCell>
        <mxCell id="qdA8zK0RTi7zm9Fms1MK-29" value="" style="shape=partialRectangle;html=1;whiteSpace=wrap;connectable=0;strokeColor=inherit;overflow=hidden;fillColor=none;top=0;left=0;bottom=0;right=0;pointerEvents=1;fontSize=16;" vertex="1" parent="qdA8zK0RTi7zm9Fms1MK-28">
          <mxGeometry width="40" height="30" as="geometry">
            <mxRectangle width="40" height="30" as="alternateBounds" />
          </mxGeometry>
        </mxCell>
        <mxCell id="qdA8zK0RTi7zm9Fms1MK-30" value="" style="shape=partialRectangle;html=1;whiteSpace=wrap;connectable=0;strokeColor=inherit;overflow=hidden;fillColor=none;top=0;left=0;bottom=0;right=0;pointerEvents=1;fontSize=16;" vertex="1" parent="qdA8zK0RTi7zm9Fms1MK-28">
          <mxGeometry x="40" width="40" height="30" as="geometry">
            <mxRectangle width="40" height="30" as="alternateBounds" />
          </mxGeometry>
        </mxCell>
        <mxCell id="qdA8zK0RTi7zm9Fms1MK-31" value="" style="shape=partialRectangle;html=1;whiteSpace=wrap;connectable=0;strokeColor=inherit;overflow=hidden;fillColor=none;top=0;left=0;bottom=0;right=0;pointerEvents=1;fontSize=16;" vertex="1" parent="qdA8zK0RTi7zm9Fms1MK-28">
          <mxGeometry x="80" width="40" height="30" as="geometry">
            <mxRectangle width="40" height="30" as="alternateBounds" />
          </mxGeometry>
        </mxCell>
        <mxCell id="qdA8zK0RTi7zm9Fms1MK-32" style="shape=partialRectangle;html=1;whiteSpace=wrap;connectable=0;strokeColor=inherit;overflow=hidden;fillColor=none;top=0;left=0;bottom=0;right=0;pointerEvents=1;fontSize=16;" vertex="1" parent="qdA8zK0RTi7zm9Fms1MK-28">
          <mxGeometry x="120" width="40" height="30" as="geometry">
            <mxRectangle width="40" height="30" as="alternateBounds" />
          </mxGeometry>
        </mxCell>
        <mxCell id="qdA8zK0RTi7zm9Fms1MK-33" style="shape=partialRectangle;html=1;whiteSpace=wrap;connectable=0;strokeColor=inherit;overflow=hidden;fillColor=none;top=0;left=0;bottom=0;right=0;pointerEvents=1;fontSize=16;" vertex="1" parent="qdA8zK0RTi7zm9Fms1MK-28">
          <mxGeometry x="160" width="40" height="30" as="geometry">
            <mxRectangle width="40" height="30" as="alternateBounds" />
          </mxGeometry>
        </mxCell>
        <mxCell id="qdA8zK0RTi7zm9Fms1MK-35" value="&lt;span style=&quot;font-size: 16px;&quot;&gt;Chipertext&lt;br&gt;&lt;/span&gt;" style="text;html=1;strokeColor=none;fillColor=none;align=center;verticalAlign=middle;whiteSpace=wrap;rounded=0;" vertex="1" parent="1">
          <mxGeometry x="118" y="460" width="80" height="30" as="geometry" />
        </mxCell>
        <mxCell id="qdA8zK0RTi7zm9Fms1MK-63" style="edgeStyle=orthogonalEdgeStyle;rounded=0;orthogonalLoop=1;jettySize=auto;html=1;entryX=0.5;entryY=0;entryDx=0;entryDy=0;" edge="1" parent="1" source="qdA8zK0RTi7zm9Fms1MK-64" target="qdA8zK0RTi7zm9Fms1MK-73">
          <mxGeometry relative="1" as="geometry" />
        </mxCell>
        <mxCell id="qdA8zK0RTi7zm9Fms1MK-64" value="" style="shape=table;startSize=0;container=1;collapsible=0;childLayout=tableLayout;fontSize=16;" vertex="1" parent="1">
          <mxGeometry x="336" y="142" width="200" height="30" as="geometry" />
        </mxCell>
        <mxCell id="qdA8zK0RTi7zm9Fms1MK-65" value="" style="shape=tableRow;horizontal=0;startSize=0;swimlaneHead=0;swimlaneBody=0;strokeColor=inherit;top=0;left=0;bottom=0;right=0;collapsible=0;dropTarget=0;fillColor=none;points=[[0,0.5],[1,0.5]];portConstraint=eastwest;fontSize=16;" vertex="1" parent="qdA8zK0RTi7zm9Fms1MK-64">
          <mxGeometry width="200" height="30" as="geometry" />
        </mxCell>
        <mxCell id="qdA8zK0RTi7zm9Fms1MK-66" value="" style="shape=partialRectangle;html=1;whiteSpace=wrap;connectable=0;strokeColor=inherit;overflow=hidden;fillColor=none;top=0;left=0;bottom=0;right=0;pointerEvents=1;fontSize=16;" vertex="1" parent="qdA8zK0RTi7zm9Fms1MK-65">
          <mxGeometry width="40" height="30" as="geometry">
            <mxRectangle width="40" height="30" as="alternateBounds" />
          </mxGeometry>
        </mxCell>
        <mxCell id="qdA8zK0RTi7zm9Fms1MK-67" value="" style="shape=partialRectangle;html=1;whiteSpace=wrap;connectable=0;strokeColor=inherit;overflow=hidden;fillColor=none;top=0;left=0;bottom=0;right=0;pointerEvents=1;fontSize=16;" vertex="1" parent="qdA8zK0RTi7zm9Fms1MK-65">
          <mxGeometry x="40" width="40" height="30" as="geometry">
            <mxRectangle width="40" height="30" as="alternateBounds" />
          </mxGeometry>
        </mxCell>
        <mxCell id="qdA8zK0RTi7zm9Fms1MK-68" value="" style="shape=partialRectangle;html=1;whiteSpace=wrap;connectable=0;strokeColor=inherit;overflow=hidden;fillColor=none;top=0;left=0;bottom=0;right=0;pointerEvents=1;fontSize=16;" vertex="1" parent="qdA8zK0RTi7zm9Fms1MK-65">
          <mxGeometry x="80" width="40" height="30" as="geometry">
            <mxRectangle width="40" height="30" as="alternateBounds" />
          </mxGeometry>
        </mxCell>
        <mxCell id="qdA8zK0RTi7zm9Fms1MK-69" style="shape=partialRectangle;html=1;whiteSpace=wrap;connectable=0;strokeColor=inherit;overflow=hidden;fillColor=none;top=0;left=0;bottom=0;right=0;pointerEvents=1;fontSize=16;" vertex="1" parent="qdA8zK0RTi7zm9Fms1MK-65">
          <mxGeometry x="120" width="40" height="30" as="geometry">
            <mxRectangle width="40" height="30" as="alternateBounds" />
          </mxGeometry>
        </mxCell>
        <mxCell id="qdA8zK0RTi7zm9Fms1MK-70" style="shape=partialRectangle;html=1;whiteSpace=wrap;connectable=0;strokeColor=inherit;overflow=hidden;fillColor=none;top=0;left=0;bottom=0;right=0;pointerEvents=1;fontSize=16;" vertex="1" parent="qdA8zK0RTi7zm9Fms1MK-65">
          <mxGeometry x="160" width="40" height="30" as="geometry">
            <mxRectangle width="40" height="30" as="alternateBounds" />
          </mxGeometry>
        </mxCell>
        <mxCell id="qdA8zK0RTi7zm9Fms1MK-71" value="&lt;span style=&quot;font-size: 16px;&quot;&gt;Plaintext&lt;/span&gt;" style="text;html=1;strokeColor=none;fillColor=none;align=center;verticalAlign=middle;whiteSpace=wrap;rounded=0;" vertex="1" parent="1">
          <mxGeometry x="409" y="112" width="60" height="30" as="geometry" />
        </mxCell>
        <mxCell id="qdA8zK0RTi7zm9Fms1MK-72" style="edgeStyle=orthogonalEdgeStyle;rounded=0;orthogonalLoop=1;jettySize=auto;html=1;" edge="1" parent="1" source="qdA8zK0RTi7zm9Fms1MK-73" target="qdA8zK0RTi7zm9Fms1MK-76">
          <mxGeometry relative="1" as="geometry" />
        </mxCell>
        <mxCell id="qdA8zK0RTi7zm9Fms1MK-73" value="&lt;font style=&quot;font-size: 19px;&quot;&gt;+&lt;/font&gt;" style="ellipse;whiteSpace=wrap;html=1;aspect=fixed;" vertex="1" parent="1">
          <mxGeometry x="421" y="232" width="30" height="30" as="geometry" />
        </mxCell>
        <mxCell id="qdA8zK0RTi7zm9Fms1MK-75" style="rounded=0;orthogonalLoop=1;jettySize=auto;html=1;entryX=0.49;entryY=-0.044;entryDx=0;entryDy=0;entryPerimeter=0;" edge="1" parent="1" source="qdA8zK0RTi7zm9Fms1MK-76" target="qdA8zK0RTi7zm9Fms1MK-79">
          <mxGeometry relative="1" as="geometry" />
        </mxCell>
        <mxCell id="qdA8zK0RTi7zm9Fms1MK-76" value="&lt;font style=&quot;font-size: 18px;&quot;&gt;Encrypt&lt;/font&gt;" style="rounded=0;whiteSpace=wrap;html=1;" vertex="1" parent="1">
          <mxGeometry x="381" y="302" width="110" height="40" as="geometry" />
        </mxCell>
        <mxCell id="qdA8zK0RTi7zm9Fms1MK-77" style="edgeStyle=orthogonalEdgeStyle;rounded=0;orthogonalLoop=1;jettySize=auto;html=1;entryX=0;entryY=0.5;entryDx=0;entryDy=0;exitX=1;exitY=0.5;exitDx=0;exitDy=0;" edge="1" parent="1">
          <mxGeometry relative="1" as="geometry">
            <mxPoint x="345" y="322" as="sourcePoint" />
            <mxPoint x="373" y="322" as="targetPoint" />
          </mxGeometry>
        </mxCell>
        <mxCell id="qdA8zK0RTi7zm9Fms1MK-78" value="" style="shape=table;startSize=0;container=1;collapsible=0;childLayout=tableLayout;fontSize=16;" vertex="1" parent="1">
          <mxGeometry x="338" y="422" width="200" height="30" as="geometry" />
        </mxCell>
        <mxCell id="qdA8zK0RTi7zm9Fms1MK-79" value="" style="shape=tableRow;horizontal=0;startSize=0;swimlaneHead=0;swimlaneBody=0;strokeColor=inherit;top=0;left=0;bottom=0;right=0;collapsible=0;dropTarget=0;fillColor=none;points=[[0,0.5],[1,0.5]];portConstraint=eastwest;fontSize=16;" vertex="1" parent="qdA8zK0RTi7zm9Fms1MK-78">
          <mxGeometry width="200" height="30" as="geometry" />
        </mxCell>
        <mxCell id="qdA8zK0RTi7zm9Fms1MK-80" value="" style="shape=partialRectangle;html=1;whiteSpace=wrap;connectable=0;strokeColor=inherit;overflow=hidden;fillColor=none;top=0;left=0;bottom=0;right=0;pointerEvents=1;fontSize=16;" vertex="1" parent="qdA8zK0RTi7zm9Fms1MK-79">
          <mxGeometry width="40" height="30" as="geometry">
            <mxRectangle width="40" height="30" as="alternateBounds" />
          </mxGeometry>
        </mxCell>
        <mxCell id="qdA8zK0RTi7zm9Fms1MK-81" value="" style="shape=partialRectangle;html=1;whiteSpace=wrap;connectable=0;strokeColor=inherit;overflow=hidden;fillColor=none;top=0;left=0;bottom=0;right=0;pointerEvents=1;fontSize=16;" vertex="1" parent="qdA8zK0RTi7zm9Fms1MK-79">
          <mxGeometry x="40" width="40" height="30" as="geometry">
            <mxRectangle width="40" height="30" as="alternateBounds" />
          </mxGeometry>
        </mxCell>
        <mxCell id="qdA8zK0RTi7zm9Fms1MK-82" value="" style="shape=partialRectangle;html=1;whiteSpace=wrap;connectable=0;strokeColor=inherit;overflow=hidden;fillColor=none;top=0;left=0;bottom=0;right=0;pointerEvents=1;fontSize=16;" vertex="1" parent="qdA8zK0RTi7zm9Fms1MK-79">
          <mxGeometry x="80" width="40" height="30" as="geometry">
            <mxRectangle width="40" height="30" as="alternateBounds" />
          </mxGeometry>
        </mxCell>
        <mxCell id="qdA8zK0RTi7zm9Fms1MK-83" style="shape=partialRectangle;html=1;whiteSpace=wrap;connectable=0;strokeColor=inherit;overflow=hidden;fillColor=none;top=0;left=0;bottom=0;right=0;pointerEvents=1;fontSize=16;" vertex="1" parent="qdA8zK0RTi7zm9Fms1MK-79">
          <mxGeometry x="120" width="40" height="30" as="geometry">
            <mxRectangle width="40" height="30" as="alternateBounds" />
          </mxGeometry>
        </mxCell>
        <mxCell id="qdA8zK0RTi7zm9Fms1MK-84" style="shape=partialRectangle;html=1;whiteSpace=wrap;connectable=0;strokeColor=inherit;overflow=hidden;fillColor=none;top=0;left=0;bottom=0;right=0;pointerEvents=1;fontSize=16;" vertex="1" parent="qdA8zK0RTi7zm9Fms1MK-79">
          <mxGeometry x="160" width="40" height="30" as="geometry">
            <mxRectangle width="40" height="30" as="alternateBounds" />
          </mxGeometry>
        </mxCell>
        <mxCell id="qdA8zK0RTi7zm9Fms1MK-85" value="&lt;span style=&quot;font-size: 16px;&quot;&gt;Chipertext&lt;br&gt;&lt;/span&gt;" style="text;html=1;strokeColor=none;fillColor=none;align=center;verticalAlign=middle;whiteSpace=wrap;rounded=0;" vertex="1" parent="1">
          <mxGeometry x="389" y="462" width="80" height="30" as="geometry" />
        </mxCell>
        <mxCell id="qdA8zK0RTi7zm9Fms1MK-86" style="edgeStyle=orthogonalEdgeStyle;rounded=0;orthogonalLoop=1;jettySize=auto;html=1;entryX=0.5;entryY=0;entryDx=0;entryDy=0;" edge="1" parent="1" source="qdA8zK0RTi7zm9Fms1MK-87" target="qdA8zK0RTi7zm9Fms1MK-96">
          <mxGeometry relative="1" as="geometry" />
        </mxCell>
        <mxCell id="qdA8zK0RTi7zm9Fms1MK-87" value="" style="shape=table;startSize=0;container=1;collapsible=0;childLayout=tableLayout;fontSize=16;" vertex="1" parent="1">
          <mxGeometry x="605" y="140" width="200" height="30" as="geometry" />
        </mxCell>
        <mxCell id="qdA8zK0RTi7zm9Fms1MK-88" value="" style="shape=tableRow;horizontal=0;startSize=0;swimlaneHead=0;swimlaneBody=0;strokeColor=inherit;top=0;left=0;bottom=0;right=0;collapsible=0;dropTarget=0;fillColor=none;points=[[0,0.5],[1,0.5]];portConstraint=eastwest;fontSize=16;" vertex="1" parent="qdA8zK0RTi7zm9Fms1MK-87">
          <mxGeometry width="200" height="30" as="geometry" />
        </mxCell>
        <mxCell id="qdA8zK0RTi7zm9Fms1MK-89" value="" style="shape=partialRectangle;html=1;whiteSpace=wrap;connectable=0;strokeColor=inherit;overflow=hidden;fillColor=none;top=0;left=0;bottom=0;right=0;pointerEvents=1;fontSize=16;" vertex="1" parent="qdA8zK0RTi7zm9Fms1MK-88">
          <mxGeometry width="40" height="30" as="geometry">
            <mxRectangle width="40" height="30" as="alternateBounds" />
          </mxGeometry>
        </mxCell>
        <mxCell id="qdA8zK0RTi7zm9Fms1MK-90" value="" style="shape=partialRectangle;html=1;whiteSpace=wrap;connectable=0;strokeColor=inherit;overflow=hidden;fillColor=none;top=0;left=0;bottom=0;right=0;pointerEvents=1;fontSize=16;" vertex="1" parent="qdA8zK0RTi7zm9Fms1MK-88">
          <mxGeometry x="40" width="40" height="30" as="geometry">
            <mxRectangle width="40" height="30" as="alternateBounds" />
          </mxGeometry>
        </mxCell>
        <mxCell id="qdA8zK0RTi7zm9Fms1MK-91" value="" style="shape=partialRectangle;html=1;whiteSpace=wrap;connectable=0;strokeColor=inherit;overflow=hidden;fillColor=none;top=0;left=0;bottom=0;right=0;pointerEvents=1;fontSize=16;" vertex="1" parent="qdA8zK0RTi7zm9Fms1MK-88">
          <mxGeometry x="80" width="40" height="30" as="geometry">
            <mxRectangle width="40" height="30" as="alternateBounds" />
          </mxGeometry>
        </mxCell>
        <mxCell id="qdA8zK0RTi7zm9Fms1MK-92" style="shape=partialRectangle;html=1;whiteSpace=wrap;connectable=0;strokeColor=inherit;overflow=hidden;fillColor=none;top=0;left=0;bottom=0;right=0;pointerEvents=1;fontSize=16;" vertex="1" parent="qdA8zK0RTi7zm9Fms1MK-88">
          <mxGeometry x="120" width="40" height="30" as="geometry">
            <mxRectangle width="40" height="30" as="alternateBounds" />
          </mxGeometry>
        </mxCell>
        <mxCell id="qdA8zK0RTi7zm9Fms1MK-93" style="shape=partialRectangle;html=1;whiteSpace=wrap;connectable=0;strokeColor=inherit;overflow=hidden;fillColor=none;top=0;left=0;bottom=0;right=0;pointerEvents=1;fontSize=16;" vertex="1" parent="qdA8zK0RTi7zm9Fms1MK-88">
          <mxGeometry x="160" width="40" height="30" as="geometry">
            <mxRectangle width="40" height="30" as="alternateBounds" />
          </mxGeometry>
        </mxCell>
        <mxCell id="qdA8zK0RTi7zm9Fms1MK-94" value="&lt;span style=&quot;font-size: 16px;&quot;&gt;Plaintext&lt;/span&gt;" style="text;html=1;strokeColor=none;fillColor=none;align=center;verticalAlign=middle;whiteSpace=wrap;rounded=0;" vertex="1" parent="1">
          <mxGeometry x="678" y="110" width="60" height="30" as="geometry" />
        </mxCell>
        <mxCell id="qdA8zK0RTi7zm9Fms1MK-95" style="edgeStyle=orthogonalEdgeStyle;rounded=0;orthogonalLoop=1;jettySize=auto;html=1;" edge="1" parent="1" source="qdA8zK0RTi7zm9Fms1MK-96" target="qdA8zK0RTi7zm9Fms1MK-99">
          <mxGeometry relative="1" as="geometry" />
        </mxCell>
        <mxCell id="qdA8zK0RTi7zm9Fms1MK-96" value="&lt;font style=&quot;font-size: 19px;&quot;&gt;+&lt;/font&gt;" style="ellipse;whiteSpace=wrap;html=1;aspect=fixed;" vertex="1" parent="1">
          <mxGeometry x="690" y="230" width="30" height="30" as="geometry" />
        </mxCell>
        <mxCell id="qdA8zK0RTi7zm9Fms1MK-98" style="rounded=0;orthogonalLoop=1;jettySize=auto;html=1;entryX=0.49;entryY=-0.044;entryDx=0;entryDy=0;entryPerimeter=0;" edge="1" parent="1" source="qdA8zK0RTi7zm9Fms1MK-99" target="qdA8zK0RTi7zm9Fms1MK-102">
          <mxGeometry relative="1" as="geometry" />
        </mxCell>
        <mxCell id="qdA8zK0RTi7zm9Fms1MK-99" value="&lt;font style=&quot;font-size: 18px;&quot;&gt;Encrypt&lt;/font&gt;" style="rounded=0;whiteSpace=wrap;html=1;" vertex="1" parent="1">
          <mxGeometry x="650" y="300" width="110" height="40" as="geometry" />
        </mxCell>
        <mxCell id="qdA8zK0RTi7zm9Fms1MK-100" style="edgeStyle=orthogonalEdgeStyle;rounded=0;orthogonalLoop=1;jettySize=auto;html=1;entryX=0;entryY=0.5;entryDx=0;entryDy=0;exitX=1;exitY=0.5;exitDx=0;exitDy=0;" edge="1" parent="1">
          <mxGeometry relative="1" as="geometry">
            <mxPoint x="614" y="320" as="sourcePoint" />
            <mxPoint x="642" y="320" as="targetPoint" />
          </mxGeometry>
        </mxCell>
        <mxCell id="qdA8zK0RTi7zm9Fms1MK-101" value="" style="shape=table;startSize=0;container=1;collapsible=0;childLayout=tableLayout;fontSize=16;" vertex="1" parent="1">
          <mxGeometry x="607" y="420" width="200" height="30" as="geometry" />
        </mxCell>
        <mxCell id="qdA8zK0RTi7zm9Fms1MK-102" value="" style="shape=tableRow;horizontal=0;startSize=0;swimlaneHead=0;swimlaneBody=0;strokeColor=inherit;top=0;left=0;bottom=0;right=0;collapsible=0;dropTarget=0;fillColor=none;points=[[0,0.5],[1,0.5]];portConstraint=eastwest;fontSize=16;" vertex="1" parent="qdA8zK0RTi7zm9Fms1MK-101">
          <mxGeometry width="200" height="30" as="geometry" />
        </mxCell>
        <mxCell id="qdA8zK0RTi7zm9Fms1MK-103" value="" style="shape=partialRectangle;html=1;whiteSpace=wrap;connectable=0;strokeColor=inherit;overflow=hidden;fillColor=none;top=0;left=0;bottom=0;right=0;pointerEvents=1;fontSize=16;" vertex="1" parent="qdA8zK0RTi7zm9Fms1MK-102">
          <mxGeometry width="40" height="30" as="geometry">
            <mxRectangle width="40" height="30" as="alternateBounds" />
          </mxGeometry>
        </mxCell>
        <mxCell id="qdA8zK0RTi7zm9Fms1MK-104" value="" style="shape=partialRectangle;html=1;whiteSpace=wrap;connectable=0;strokeColor=inherit;overflow=hidden;fillColor=none;top=0;left=0;bottom=0;right=0;pointerEvents=1;fontSize=16;" vertex="1" parent="qdA8zK0RTi7zm9Fms1MK-102">
          <mxGeometry x="40" width="40" height="30" as="geometry">
            <mxRectangle width="40" height="30" as="alternateBounds" />
          </mxGeometry>
        </mxCell>
        <mxCell id="qdA8zK0RTi7zm9Fms1MK-105" value="" style="shape=partialRectangle;html=1;whiteSpace=wrap;connectable=0;strokeColor=inherit;overflow=hidden;fillColor=none;top=0;left=0;bottom=0;right=0;pointerEvents=1;fontSize=16;" vertex="1" parent="qdA8zK0RTi7zm9Fms1MK-102">
          <mxGeometry x="80" width="40" height="30" as="geometry">
            <mxRectangle width="40" height="30" as="alternateBounds" />
          </mxGeometry>
        </mxCell>
        <mxCell id="qdA8zK0RTi7zm9Fms1MK-106" style="shape=partialRectangle;html=1;whiteSpace=wrap;connectable=0;strokeColor=inherit;overflow=hidden;fillColor=none;top=0;left=0;bottom=0;right=0;pointerEvents=1;fontSize=16;" vertex="1" parent="qdA8zK0RTi7zm9Fms1MK-102">
          <mxGeometry x="120" width="40" height="30" as="geometry">
            <mxRectangle width="40" height="30" as="alternateBounds" />
          </mxGeometry>
        </mxCell>
        <mxCell id="qdA8zK0RTi7zm9Fms1MK-107" style="shape=partialRectangle;html=1;whiteSpace=wrap;connectable=0;strokeColor=inherit;overflow=hidden;fillColor=none;top=0;left=0;bottom=0;right=0;pointerEvents=1;fontSize=16;" vertex="1" parent="qdA8zK0RTi7zm9Fms1MK-102">
          <mxGeometry x="160" width="40" height="30" as="geometry">
            <mxRectangle width="40" height="30" as="alternateBounds" />
          </mxGeometry>
        </mxCell>
        <mxCell id="qdA8zK0RTi7zm9Fms1MK-108" value="&lt;span style=&quot;font-size: 16px;&quot;&gt;Chipertext&lt;br&gt;&lt;/span&gt;" style="text;html=1;strokeColor=none;fillColor=none;align=center;verticalAlign=middle;whiteSpace=wrap;rounded=0;" vertex="1" parent="1">
          <mxGeometry x="658" y="460" width="80" height="30" as="geometry" />
        </mxCell>
        <mxCell id="qdA8zK0RTi7zm9Fms1MK-109" value="&lt;span style=&quot;font-size: 16px;&quot;&gt;Key&lt;/span&gt;" style="text;html=1;strokeColor=none;fillColor=none;align=center;verticalAlign=middle;whiteSpace=wrap;rounded=0;" vertex="1" parent="1">
          <mxGeometry x="276" y="306" width="60" height="30" as="geometry" />
        </mxCell>
        <mxCell id="qdA8zK0RTi7zm9Fms1MK-111" value="&lt;span style=&quot;font-size: 16px;&quot;&gt;Key&lt;/span&gt;" style="text;html=1;strokeColor=none;fillColor=none;align=center;verticalAlign=middle;whiteSpace=wrap;rounded=0;" vertex="1" parent="1">
          <mxGeometry x="545" y="306" width="60" height="30" as="geometry" />
        </mxCell>
        <mxCell id="qdA8zK0RTi7zm9Fms1MK-113" value="" style="endArrow=classic;html=1;rounded=0;" edge="1" parent="1">
          <mxGeometry width="50" height="50" relative="1" as="geometry">
            <mxPoint x="165" y="378" as="sourcePoint" />
            <mxPoint x="415" y="248" as="targetPoint" />
            <Array as="points">
              <mxPoint x="265" y="378" />
              <mxPoint x="265" y="248" />
            </Array>
          </mxGeometry>
        </mxCell>
        <mxCell id="qdA8zK0RTi7zm9Fms1MK-115" value="" style="endArrow=classic;html=1;rounded=0;" edge="1" parent="1">
          <mxGeometry width="50" height="50" relative="1" as="geometry">
            <mxPoint x="435" y="376" as="sourcePoint" />
            <mxPoint x="685" y="246" as="targetPoint" />
            <Array as="points">
              <mxPoint x="535" y="376" />
              <mxPoint x="535" y="246" />
            </Array>
          </mxGeometry>
        </mxCell>
        <mxCell id="qdA8zK0RTi7zm9Fms1MK-116" value="分组加密算法过程" style="shape=umlFrame;whiteSpace=wrap;html=1;pointerEvents=0;recursiveResize=0;container=1;collapsible=0;width=160;" vertex="1" parent="1">
          <mxGeometry x="13" y="67" width="807" height="423" as="geometry" />
        </mxCell>
      </root>
    </mxGraphModel>
  </diagram>
  <diagram id="UlF2dzgQCzVJCODblxUu" name="流算法加密过程">
    <mxGraphModel dx="954" dy="626" grid="1" gridSize="10" guides="1" tooltips="1" connect="1" arrows="1" fold="1" page="1" pageScale="1" pageWidth="827" pageHeight="1169" math="0" shadow="0">
      <root>
        <mxCell id="0" />
        <mxCell id="1" parent="0" />
        <mxCell id="HiemrUrMSDPYor2AyXYe-1" value="" style="shape=table;startSize=0;container=1;collapsible=0;childLayout=tableLayout;fontSize=16;" vertex="1" parent="1">
          <mxGeometry x="118" y="210" width="200" height="30" as="geometry" />
        </mxCell>
        <mxCell id="HiemrUrMSDPYor2AyXYe-2" value="" style="shape=tableRow;horizontal=0;startSize=0;swimlaneHead=0;swimlaneBody=0;strokeColor=inherit;top=0;left=0;bottom=0;right=0;collapsible=0;dropTarget=0;fillColor=none;points=[[0,0.5],[1,0.5]];portConstraint=eastwest;fontSize=16;" vertex="1" parent="HiemrUrMSDPYor2AyXYe-1">
          <mxGeometry width="200" height="30" as="geometry" />
        </mxCell>
        <mxCell id="HiemrUrMSDPYor2AyXYe-3" value="" style="shape=partialRectangle;html=1;whiteSpace=wrap;connectable=0;strokeColor=inherit;overflow=hidden;fillColor=none;top=0;left=0;bottom=0;right=0;pointerEvents=1;fontSize=16;" vertex="1" parent="HiemrUrMSDPYor2AyXYe-2">
          <mxGeometry width="40" height="30" as="geometry">
            <mxRectangle width="40" height="30" as="alternateBounds" />
          </mxGeometry>
        </mxCell>
        <mxCell id="HiemrUrMSDPYor2AyXYe-4" value="" style="shape=partialRectangle;html=1;whiteSpace=wrap;connectable=0;strokeColor=inherit;overflow=hidden;fillColor=none;top=0;left=0;bottom=0;right=0;pointerEvents=1;fontSize=16;" vertex="1" parent="HiemrUrMSDPYor2AyXYe-2">
          <mxGeometry x="40" width="42" height="30" as="geometry">
            <mxRectangle width="42" height="30" as="alternateBounds" />
          </mxGeometry>
        </mxCell>
        <mxCell id="HiemrUrMSDPYor2AyXYe-5" value="" style="shape=partialRectangle;html=1;whiteSpace=wrap;connectable=0;strokeColor=inherit;overflow=hidden;fillColor=none;top=0;left=0;bottom=0;right=0;pointerEvents=1;fontSize=16;" vertex="1" parent="HiemrUrMSDPYor2AyXYe-2">
          <mxGeometry x="82" width="43" height="30" as="geometry">
            <mxRectangle width="43" height="30" as="alternateBounds" />
          </mxGeometry>
        </mxCell>
        <mxCell id="HiemrUrMSDPYor2AyXYe-6" style="shape=partialRectangle;html=1;whiteSpace=wrap;connectable=0;strokeColor=inherit;overflow=hidden;fillColor=none;top=0;left=0;bottom=0;right=0;pointerEvents=1;fontSize=16;" vertex="1" parent="HiemrUrMSDPYor2AyXYe-2">
          <mxGeometry x="125" width="35" height="30" as="geometry">
            <mxRectangle width="35" height="30" as="alternateBounds" />
          </mxGeometry>
        </mxCell>
        <mxCell id="HiemrUrMSDPYor2AyXYe-7" style="shape=partialRectangle;html=1;whiteSpace=wrap;connectable=0;strokeColor=inherit;overflow=hidden;fillColor=none;top=0;left=0;bottom=0;right=0;pointerEvents=1;fontSize=16;" vertex="1" parent="HiemrUrMSDPYor2AyXYe-2">
          <mxGeometry x="160" width="40" height="30" as="geometry">
            <mxRectangle width="40" height="30" as="alternateBounds" />
          </mxGeometry>
        </mxCell>
        <mxCell id="HiemrUrMSDPYor2AyXYe-8" value="&lt;span style=&quot;font-size: 16px;&quot;&gt;Plaintext&lt;/span&gt;" style="text;html=1;strokeColor=none;fillColor=none;align=center;verticalAlign=middle;whiteSpace=wrap;rounded=0;" vertex="1" parent="1">
          <mxGeometry x="191" y="180" width="60" height="30" as="geometry" />
        </mxCell>
        <mxCell id="12c8F8whFVqOC9NBOZ3H-3" style="edgeStyle=orthogonalEdgeStyle;rounded=0;orthogonalLoop=1;jettySize=auto;html=1;entryX=0.5;entryY=0;entryDx=0;entryDy=0;" edge="1" parent="1" target="12c8F8whFVqOC9NBOZ3H-1">
          <mxGeometry relative="1" as="geometry">
            <mxPoint x="430" y="254" as="targetPoint" />
            <mxPoint x="378" y="229" as="sourcePoint" />
          </mxGeometry>
        </mxCell>
        <mxCell id="HiemrUrMSDPYor2AyXYe-9" value="&lt;b style=&quot;&quot;&gt;&lt;font style=&quot;font-size: 18px;&quot;&gt;……&lt;/font&gt;&lt;/b&gt;" style="text;html=1;strokeColor=none;fillColor=none;align=center;verticalAlign=middle;whiteSpace=wrap;rounded=0;" vertex="1" parent="1">
          <mxGeometry x="318" y="210" width="60" height="30" as="geometry" />
        </mxCell>
        <mxCell id="FTnLsR7Xrk5E2pGoIVVq-21" style="rounded=0;orthogonalLoop=1;jettySize=auto;html=1;entryX=0;entryY=0.5;entryDx=0;entryDy=0;" edge="1" parent="1" source="HiemrUrMSDPYor2AyXYe-10" target="FTnLsR7Xrk5E2pGoIVVq-13">
          <mxGeometry relative="1" as="geometry">
            <mxPoint x="110" y="330" as="targetPoint" />
            <Array as="points">
              <mxPoint x="100" y="110" />
              <mxPoint x="100" y="325" />
            </Array>
          </mxGeometry>
        </mxCell>
        <mxCell id="HiemrUrMSDPYor2AyXYe-10" value="&lt;font style=&quot;font-size: 18px;&quot;&gt;Key&lt;br&gt;Scheduler&lt;/font&gt;" style="rounded=0;whiteSpace=wrap;html=1;" vertex="1" parent="1">
          <mxGeometry x="130" y="80" width="120" height="60" as="geometry" />
        </mxCell>
        <mxCell id="HiemrUrMSDPYor2AyXYe-11" value="&lt;font style=&quot;font-size: 16px;&quot;&gt;IV&lt;/font&gt;" style="text;html=1;strokeColor=none;fillColor=none;align=center;verticalAlign=middle;whiteSpace=wrap;rounded=0;" vertex="1" parent="1">
          <mxGeometry x="294" y="82" width="60" height="30" as="geometry" />
        </mxCell>
        <mxCell id="FTnLsR7Xrk5E2pGoIVVq-3" style="edgeStyle=orthogonalEdgeStyle;rounded=0;orthogonalLoop=1;jettySize=auto;html=1;entryX=1.061;entryY=0.8;entryDx=0;entryDy=0;entryPerimeter=0;" edge="1" parent="1">
          <mxGeometry relative="1" as="geometry">
            <mxPoint x="305" y="128" as="sourcePoint" />
            <mxPoint x="262.31999999999994" y="128" as="targetPoint" />
          </mxGeometry>
        </mxCell>
        <mxCell id="FTnLsR7Xrk5E2pGoIVVq-1" value="&lt;span style=&quot;font-size: 16px;&quot;&gt;Key&lt;/span&gt;" style="text;html=1;strokeColor=none;fillColor=none;align=center;verticalAlign=middle;whiteSpace=wrap;rounded=0;" vertex="1" parent="1">
          <mxGeometry x="300" y="113" width="60" height="30" as="geometry" />
        </mxCell>
        <mxCell id="FTnLsR7Xrk5E2pGoIVVq-4" style="edgeStyle=orthogonalEdgeStyle;rounded=0;orthogonalLoop=1;jettySize=auto;html=1;entryX=1.061;entryY=0.8;entryDx=0;entryDy=0;entryPerimeter=0;" edge="1" parent="1">
          <mxGeometry relative="1" as="geometry">
            <mxPoint x="306" y="97" as="sourcePoint" />
            <mxPoint x="263" y="97" as="targetPoint" />
          </mxGeometry>
        </mxCell>
        <mxCell id="FTnLsR7Xrk5E2pGoIVVq-12" value="" style="shape=table;startSize=0;container=1;collapsible=0;childLayout=tableLayout;fontSize=16;" vertex="1" parent="1">
          <mxGeometry x="120" y="310" width="198" height="30" as="geometry" />
        </mxCell>
        <mxCell id="FTnLsR7Xrk5E2pGoIVVq-13" value="" style="shape=tableRow;horizontal=0;startSize=0;swimlaneHead=0;swimlaneBody=0;strokeColor=inherit;top=0;left=0;bottom=0;right=0;collapsible=0;dropTarget=0;fillColor=none;points=[[0,0.5],[1,0.5]];portConstraint=eastwest;fontSize=16;" vertex="1" parent="FTnLsR7Xrk5E2pGoIVVq-12">
          <mxGeometry width="198" height="30" as="geometry" />
        </mxCell>
        <mxCell id="FTnLsR7Xrk5E2pGoIVVq-14" value="" style="shape=partialRectangle;html=1;whiteSpace=wrap;connectable=0;strokeColor=inherit;overflow=hidden;fillColor=none;top=0;left=0;bottom=0;right=0;pointerEvents=1;fontSize=16;" vertex="1" parent="FTnLsR7Xrk5E2pGoIVVq-13">
          <mxGeometry width="40" height="30" as="geometry">
            <mxRectangle width="40" height="30" as="alternateBounds" />
          </mxGeometry>
        </mxCell>
        <mxCell id="FTnLsR7Xrk5E2pGoIVVq-15" value="" style="shape=partialRectangle;html=1;whiteSpace=wrap;connectable=0;strokeColor=inherit;overflow=hidden;fillColor=none;top=0;left=0;bottom=0;right=0;pointerEvents=1;fontSize=16;" vertex="1" parent="FTnLsR7Xrk5E2pGoIVVq-13">
          <mxGeometry x="40" width="39" height="30" as="geometry">
            <mxRectangle width="39" height="30" as="alternateBounds" />
          </mxGeometry>
        </mxCell>
        <mxCell id="FTnLsR7Xrk5E2pGoIVVq-16" value="" style="shape=partialRectangle;html=1;whiteSpace=wrap;connectable=0;strokeColor=inherit;overflow=hidden;fillColor=none;top=0;left=0;bottom=0;right=0;pointerEvents=1;fontSize=16;" vertex="1" parent="FTnLsR7Xrk5E2pGoIVVq-13">
          <mxGeometry x="79" width="45" height="30" as="geometry">
            <mxRectangle width="45" height="30" as="alternateBounds" />
          </mxGeometry>
        </mxCell>
        <mxCell id="FTnLsR7Xrk5E2pGoIVVq-17" style="shape=partialRectangle;html=1;whiteSpace=wrap;connectable=0;strokeColor=inherit;overflow=hidden;fillColor=none;top=0;left=0;bottom=0;right=0;pointerEvents=1;fontSize=16;" vertex="1" parent="FTnLsR7Xrk5E2pGoIVVq-13">
          <mxGeometry x="124" width="34" height="30" as="geometry">
            <mxRectangle width="34" height="30" as="alternateBounds" />
          </mxGeometry>
        </mxCell>
        <mxCell id="FTnLsR7Xrk5E2pGoIVVq-18" style="shape=partialRectangle;html=1;whiteSpace=wrap;connectable=0;strokeColor=inherit;overflow=hidden;fillColor=none;top=0;left=0;bottom=0;right=0;pointerEvents=1;fontSize=16;" vertex="1" parent="FTnLsR7Xrk5E2pGoIVVq-13">
          <mxGeometry x="158" width="40" height="30" as="geometry">
            <mxRectangle width="40" height="30" as="alternateBounds" />
          </mxGeometry>
        </mxCell>
        <mxCell id="FTnLsR7Xrk5E2pGoIVVq-19" value="&lt;span style=&quot;font-size: 16px;&quot;&gt;Keystream&lt;/span&gt;" style="text;html=1;strokeColor=none;fillColor=none;align=center;verticalAlign=middle;whiteSpace=wrap;rounded=0;" vertex="1" parent="1">
          <mxGeometry x="191" y="280" width="60" height="30" as="geometry" />
        </mxCell>
        <mxCell id="FTnLsR7Xrk5E2pGoIVVq-23" style="edgeStyle=orthogonalEdgeStyle;rounded=0;orthogonalLoop=1;jettySize=auto;html=1;" edge="1" parent="1">
          <mxGeometry relative="1" as="geometry">
            <mxPoint x="430" y="294" as="targetPoint" />
            <mxPoint x="378" y="329" as="sourcePoint" />
          </mxGeometry>
        </mxCell>
        <mxCell id="FTnLsR7Xrk5E2pGoIVVq-20" value="&lt;b style=&quot;&quot;&gt;&lt;font style=&quot;font-size: 18px;&quot;&gt;……&lt;/font&gt;&lt;/b&gt;" style="text;html=1;strokeColor=none;fillColor=none;align=center;verticalAlign=middle;whiteSpace=wrap;rounded=0;" vertex="1" parent="1">
          <mxGeometry x="318" y="310" width="60" height="30" as="geometry" />
        </mxCell>
        <mxCell id="12c8F8whFVqOC9NBOZ3H-19" style="edgeStyle=orthogonalEdgeStyle;rounded=0;orthogonalLoop=1;jettySize=auto;html=1;entryX=0;entryY=0.5;entryDx=0;entryDy=0;" edge="1" parent="1" source="12c8F8whFVqOC9NBOZ3H-1" target="12c8F8whFVqOC9NBOZ3H-11">
          <mxGeometry relative="1" as="geometry" />
        </mxCell>
        <mxCell id="12c8F8whFVqOC9NBOZ3H-1" value="&lt;font style=&quot;font-size: 19px;&quot;&gt;+&lt;/font&gt;" style="ellipse;whiteSpace=wrap;html=1;aspect=fixed;" vertex="1" parent="1">
          <mxGeometry x="414" y="264" width="30" height="30" as="geometry" />
        </mxCell>
        <mxCell id="12c8F8whFVqOC9NBOZ3H-10" value="" style="shape=table;startSize=0;container=1;collapsible=0;childLayout=tableLayout;fontSize=16;" vertex="1" parent="1">
          <mxGeometry x="510" y="264" width="198" height="30" as="geometry" />
        </mxCell>
        <mxCell id="12c8F8whFVqOC9NBOZ3H-11" value="" style="shape=tableRow;horizontal=0;startSize=0;swimlaneHead=0;swimlaneBody=0;strokeColor=inherit;top=0;left=0;bottom=0;right=0;collapsible=0;dropTarget=0;fillColor=none;points=[[0,0.5],[1,0.5]];portConstraint=eastwest;fontSize=16;" vertex="1" parent="12c8F8whFVqOC9NBOZ3H-10">
          <mxGeometry width="198" height="30" as="geometry" />
        </mxCell>
        <mxCell id="12c8F8whFVqOC9NBOZ3H-12" value="" style="shape=partialRectangle;html=1;whiteSpace=wrap;connectable=0;strokeColor=inherit;overflow=hidden;fillColor=none;top=0;left=0;bottom=0;right=0;pointerEvents=1;fontSize=16;" vertex="1" parent="12c8F8whFVqOC9NBOZ3H-11">
          <mxGeometry width="40" height="30" as="geometry">
            <mxRectangle width="40" height="30" as="alternateBounds" />
          </mxGeometry>
        </mxCell>
        <mxCell id="12c8F8whFVqOC9NBOZ3H-13" value="" style="shape=partialRectangle;html=1;whiteSpace=wrap;connectable=0;strokeColor=inherit;overflow=hidden;fillColor=none;top=0;left=0;bottom=0;right=0;pointerEvents=1;fontSize=16;" vertex="1" parent="12c8F8whFVqOC9NBOZ3H-11">
          <mxGeometry x="40" width="39" height="30" as="geometry">
            <mxRectangle width="39" height="30" as="alternateBounds" />
          </mxGeometry>
        </mxCell>
        <mxCell id="12c8F8whFVqOC9NBOZ3H-14" value="" style="shape=partialRectangle;html=1;whiteSpace=wrap;connectable=0;strokeColor=inherit;overflow=hidden;fillColor=none;top=0;left=0;bottom=0;right=0;pointerEvents=1;fontSize=16;" vertex="1" parent="12c8F8whFVqOC9NBOZ3H-11">
          <mxGeometry x="79" width="45" height="30" as="geometry">
            <mxRectangle width="45" height="30" as="alternateBounds" />
          </mxGeometry>
        </mxCell>
        <mxCell id="12c8F8whFVqOC9NBOZ3H-15" style="shape=partialRectangle;html=1;whiteSpace=wrap;connectable=0;strokeColor=inherit;overflow=hidden;fillColor=none;top=0;left=0;bottom=0;right=0;pointerEvents=1;fontSize=16;" vertex="1" parent="12c8F8whFVqOC9NBOZ3H-11">
          <mxGeometry x="124" width="34" height="30" as="geometry">
            <mxRectangle width="34" height="30" as="alternateBounds" />
          </mxGeometry>
        </mxCell>
        <mxCell id="12c8F8whFVqOC9NBOZ3H-16" style="shape=partialRectangle;html=1;whiteSpace=wrap;connectable=0;strokeColor=inherit;overflow=hidden;fillColor=none;top=0;left=0;bottom=0;right=0;pointerEvents=1;fontSize=16;" vertex="1" parent="12c8F8whFVqOC9NBOZ3H-11">
          <mxGeometry x="158" width="40" height="30" as="geometry">
            <mxRectangle width="40" height="30" as="alternateBounds" />
          </mxGeometry>
        </mxCell>
        <mxCell id="12c8F8whFVqOC9NBOZ3H-17" value="&lt;span style=&quot;font-size: 16px;&quot;&gt;Chipertext&lt;/span&gt;" style="text;html=1;strokeColor=none;fillColor=none;align=center;verticalAlign=middle;whiteSpace=wrap;rounded=0;" vertex="1" parent="1">
          <mxGeometry x="581" y="234" width="60" height="30" as="geometry" />
        </mxCell>
        <mxCell id="12c8F8whFVqOC9NBOZ3H-18" value="&lt;b style=&quot;&quot;&gt;&lt;font style=&quot;font-size: 18px;&quot;&gt;……&lt;/font&gt;&lt;/b&gt;" style="text;html=1;strokeColor=none;fillColor=none;align=center;verticalAlign=middle;whiteSpace=wrap;rounded=0;" vertex="1" parent="1">
          <mxGeometry x="708" y="264" width="60" height="30" as="geometry" />
        </mxCell>
        <mxCell id="12c8F8whFVqOC9NBOZ3H-20" value="流算法加密过程" style="shape=umlFrame;whiteSpace=wrap;html=1;pointerEvents=0;recursiveResize=0;container=1;collapsible=0;width=160;" vertex="1" parent="1">
          <mxGeometry x="60" y="30" width="710" height="330" as="geometry" />
        </mxCell>
      </root>
    </mxGraphModel>
  </diagram>
</mxfile>
